<svg xmlns="http://www.w3.org/2000/svg" width="185" height="157" viewBox="0 0 185 157" fill="#fff" opacity=".04">
  <g transform="translate(-831.548 -101.527)">
    <path d="M841.987,111.53l3.5,6.056,3.5,6.056H834.994l3.5-6.056Z"/>
    <path d="M880.89,140.438l3.5,6.056,3.5,6.056H873.9l3.5-6.056Z"/>
    <path d="M845.057,176.63l-1.81,6.754-1.81,6.754-4.945-4.945-4.945-4.945,6.755-1.81Z"/>
    <path d="M949.246,142.19,956,144l6.754,1.81-4.945,4.945-4.945,4.945-1.81-6.754Z"/>
    <path d="M942.253,226.978l-3.5-6.056-3.5-6.056h13.985l-3.5,6.056Z"/>
    <path d="M907.483,176.63l6.754,1.81,6.754,1.81-4.945,4.945-4.945,4.945-1.81-6.754Z"/>
    <path d="M869.6,214.451l-1.81,6.754-1.81,6.754-4.945-4.945-4.945-4.945,6.754-1.81Z"/>
    <path d="M976.672,189.005l6.754,1.81,6.754,1.81-4.945,4.944-4.945,4.945-1.81-6.754Z"/>
    <path d="M983.427,106.581l3.5,6.056,3.5,6.056H976.434l3.5-6.056Z"/>
    <path d="M919.575,101.527l-1.81,6.754-1.81,6.754-4.945-4.945-4.945-4.945,6.754-1.81Z"/>
  </g>
</svg>
